<mxfile host="65bd71144e">
    <diagram id="hbv2fyIWGQB-rgWUKbhD" name="Overview">
        <mxGraphModel dx="1603" dy="1133" grid="1" gridSize="10" guides="1" tooltips="1" connect="1" arrows="1" fold="1" page="1" pageScale="1" pageWidth="1169" pageHeight="827" math="0" shadow="0">
            <root>
                <mxCell id="0"/>
                <mxCell id="1" parent="0"/>
                <mxCell id="3" value="" style="rounded=0;whiteSpace=wrap;html=1;fontFamily=Lucida Console;connectable=0;dashed=1;movable=0;recursiveResize=0;" parent="1" vertex="1">
                    <mxGeometry x="20" y="20" width="820" height="550" as="geometry"/>
                </mxCell>
                <mxCell id="7" value="Browser extension" style="rounded=0;whiteSpace=wrap;html=1;verticalAlign=middle;fillColor=#d5e8d4;strokeColor=#82b366;fontStyle=0;fontFamily=Lucida Console;" parent="3" vertex="1">
                    <mxGeometry x="30" y="120" width="190" height="59" as="geometry"/>
                </mxCell>
                <mxCell id="12" value="Elasticsearch" style="shape=cylinder3;whiteSpace=wrap;html=1;boundedLbl=1;backgroundOutline=1;size=15;sketch=0;strokeColor=#666666;fontFamily=Lucida Console;fillColor=#f5f5f5;fontColor=#333333;" parent="3" vertex="1">
                    <mxGeometry x="480" y="290" width="120" height="80" as="geometry"/>
                </mxCell>
                <mxCell id="2" value="XM Cloud instance" style="rounded=0;whiteSpace=wrap;html=1;verticalAlign=top;fillColor=#f8cecc;strokeColor=#b85450;fontStyle=0;fontFamily=Lucida Console;" parent="3" vertex="1">
                    <mxGeometry x="30" y="250" width="190" height="120" as="geometry"/>
                </mxCell>
                <mxCell id="4" value="webhook config" style="rounded=0;whiteSpace=wrap;html=1;sketch=0;strokeColor=#82b366;fontFamily=Lucida Console;fillColor=#d5e8d4;" parent="3" vertex="1">
                    <mxGeometry x="70" y="310" width="120" height="40" as="geometry"/>
                </mxCell>
                <mxCell id="5" value="web app&lt;br&gt;(glitterbucket)" style="rounded=0;whiteSpace=wrap;html=1;sketch=0;strokeColor=#82b366;fontFamily=Lucida Console;fillColor=#d5e8d4;" parent="3" vertex="1">
                    <mxGeometry x="290" y="290" width="120" height="80" as="geometry"/>
                </mxCell>
                <mxCell id="9" value="" style="edgeStyle=orthogonalEdgeStyle;html=1;fontFamily=Lucida Console;entryX=0.5;entryY=0;entryDx=0;entryDy=0;startArrow=classic;startFill=1;" parent="3" source="7" target="5" edge="1">
                    <mxGeometry relative="1" as="geometry"/>
                </mxCell>
                <mxCell id="11" value="http" style="edgeLabel;html=1;align=center;verticalAlign=middle;resizable=0;points=[];fontFamily=Lucida Console;" parent="9" vertex="1" connectable="0">
                    <mxGeometry x="0.0474" y="2" relative="1" as="geometry">
                        <mxPoint x="-2" y="49" as="offset"/>
                    </mxGeometry>
                </mxCell>
                <mxCell id="6" style="edgeStyle=orthogonalEdgeStyle;html=1;exitX=1;exitY=0.5;exitDx=0;exitDy=0;entryX=0;entryY=0.5;entryDx=0;entryDy=0;fontFamily=Lucida Console;" parent="3" source="4" target="5" edge="1">
                    <mxGeometry relative="1" as="geometry"/>
                </mxCell>
                <mxCell id="10" value="http" style="edgeLabel;html=1;align=center;verticalAlign=middle;resizable=0;points=[];fontFamily=Lucida Console;" parent="6" vertex="1" connectable="0">
                    <mxGeometry x="0.2756" y="-1" relative="1" as="geometry">
                        <mxPoint as="offset"/>
                    </mxGeometry>
                </mxCell>
                <mxCell id="15" style="edgeStyle=orthogonalEdgeStyle;html=1;exitX=1;exitY=0.5;exitDx=0;exitDy=0;entryX=0;entryY=0.5;entryDx=0;entryDy=0;fontFamily=Lucida Console;entryPerimeter=0;" parent="3" source="5" target="12" edge="1">
                    <mxGeometry relative="1" as="geometry">
                        <mxPoint x="480" y="409.30999999999995" as="sourcePoint"/>
                        <mxPoint x="620" y="409.30999999999995" as="targetPoint"/>
                    </mxGeometry>
                </mxCell>
                <mxCell id="16" value="http" style="edgeLabel;html=1;align=center;verticalAlign=middle;resizable=0;points=[];fontFamily=Lucida Console;" parent="15" vertex="1" connectable="0">
                    <mxGeometry x="0.2756" y="-1" relative="1" as="geometry">
                        <mxPoint x="-10" y="-1" as="offset"/>
                    </mxGeometry>
                </mxCell>
                <mxCell id="18" value="Kibana" style="rounded=0;whiteSpace=wrap;html=1;sketch=0;strokeColor=#666666;fontFamily=Lucida Console;fillColor=#f5f5f5;fontColor=#333333;" parent="3" vertex="1">
                    <mxGeometry x="670" y="290" width="120" height="80" as="geometry"/>
                </mxCell>
                <mxCell id="19" style="edgeStyle=orthogonalEdgeStyle;html=1;fontFamily=Lucida Console;entryX=1;entryY=0.5;entryDx=0;entryDy=0;entryPerimeter=0;exitX=0;exitY=0.5;exitDx=0;exitDy=0;" parent="3" source="18" target="12" edge="1">
                    <mxGeometry relative="1" as="geometry">
                        <mxPoint x="630" y="350" as="sourcePoint"/>
                        <mxPoint x="740" y="430" as="targetPoint"/>
                        <Array as="points"/>
                    </mxGeometry>
                </mxCell>
                <mxCell id="20" value="http" style="edgeLabel;html=1;align=center;verticalAlign=middle;resizable=0;points=[];fontFamily=Lucida Console;" parent="19" vertex="1" connectable="0">
                    <mxGeometry x="0.2756" y="-1" relative="1" as="geometry">
                        <mxPoint x="11" y="1" as="offset"/>
                    </mxGeometry>
                </mxCell>
                <mxCell id="21" value="Developer/admin" style="shape=umlActor;verticalLabelPosition=bottom;verticalAlign=top;html=1;outlineConnect=0;sketch=0;strokeColor=default;fontFamily=Lucida Console;fillColor=default;" parent="3" vertex="1">
                    <mxGeometry x="715" y="30" width="30" height="60" as="geometry"/>
                </mxCell>
                <mxCell id="22" value="" style="edgeStyle=orthogonalEdgeStyle;html=1;fontFamily=Lucida Console;entryX=0.5;entryY=0;entryDx=0;entryDy=0;startArrow=classic;startFill=1;" parent="3" target="18" edge="1">
                    <mxGeometry relative="1" as="geometry">
                        <mxPoint x="730" y="120" as="sourcePoint"/>
                        <mxPoint x="730" y="290" as="targetPoint"/>
                    </mxGeometry>
                </mxCell>
                <mxCell id="23" value="http" style="edgeLabel;html=1;align=center;verticalAlign=middle;resizable=0;points=[];fontFamily=Lucida Console;" parent="22" vertex="1" connectable="0">
                    <mxGeometry x="0.0474" y="2" relative="1" as="geometry">
                        <mxPoint as="offset"/>
                    </mxGeometry>
                </mxCell>
                <mxCell id="8" value="User" style="shape=umlActor;verticalLabelPosition=bottom;verticalAlign=top;html=1;outlineConnect=0;sketch=0;strokeColor=default;fontFamily=Lucida Console;fillColor=default;" parent="3" vertex="1">
                    <mxGeometry x="110" y="30" width="30" height="60" as="geometry"/>
                </mxCell>
                <mxCell id="24" value="delivered by Sitecore" style="rounded=0;whiteSpace=wrap;html=1;fillColor=#f8cecc;strokeColor=#b85450;" parent="3" vertex="1">
                    <mxGeometry x="30" y="440" width="190" height="20" as="geometry"/>
                </mxCell>
                <mxCell id="25" value="delivered by this repo" style="rounded=0;whiteSpace=wrap;html=1;fillColor=#d5e8d4;strokeColor=#82b366;" parent="3" vertex="1">
                    <mxGeometry x="30" y="470" width="190" height="20" as="geometry"/>
                </mxCell>
                <mxCell id="27" value="LEGEND" style="text;html=1;strokeColor=none;fillColor=none;align=center;verticalAlign=middle;whiteSpace=wrap;rounded=0;" parent="3" vertex="1">
                    <mxGeometry x="30" y="410" width="190" height="20" as="geometry"/>
                </mxCell>
                <mxCell id="28" value="delivered by third party" style="rounded=0;whiteSpace=wrap;html=1;fillColor=#f5f5f5;strokeColor=#666666;fontColor=#333333;" parent="3" vertex="1">
                    <mxGeometry x="30" y="500" width="190" height="20" as="geometry"/>
                </mxCell>
            </root>
        </mxGraphModel>
    </diagram>
</mxfile>